<svg xmlns="http://www.w3.org/2000/svg" xmlns:xlink="http://www.w3.org/1999/xlink" width="1000" zoomAndPan="magnify" viewBox="0 0 750 749.999995" height="1000" preserveAspectRatio="xMidYMid meet" version="1.0"><defs><clipPath id="6a2d57924c"><path d="M 283 581 L 472 581 L 472 661.5 L 283 661.5 Z M 283 581 " clip-rule="nonzero"/></clipPath><clipPath id="a9f2854abe"><path d="M 247 88.5 L 501 88.5 L 501 355 L 247 355 Z M 247 88.5 " clip-rule="nonzero"/></clipPath></defs><path fill="#ffffff" d="M 284.878906 587.097656 C 287.597656 584.949219 290.605469 583.230469 293.609375 581.65625 C 271.707031 570.0625 252.523438 553.882812 237.492188 534.269531 L 218.164062 534.269531 C 218.164062 534.269531 218.019531 534.269531 218.019531 534.269531 L 208.285156 534.269531 C 224.75 560.324219 247.226562 582.230469 273.710938 597.976562 C 276.574219 593.96875 280.296875 590.246094 284.878906 587.097656 C 284.734375 587.242188 284.878906 587.242188 284.878906 587.097656 Z M 284.878906 587.097656 " fill-opacity="1" fill-rule="evenodd"/><path fill="#ffffff" d="M 171.777344 301.914062 C 171.921875 301.914062 171.921875 301.914062 171.777344 301.914062 C 175.644531 302.199219 180.082031 303.058594 184.378906 304.492188 C 189.101562 288.457031 199.839844 274.714844 212.292969 263.832031 C 228.183594 249.945312 247.800781 239.496094 267.839844 231.90625 L 267.984375 231.765625 C 267.699219 228.328125 267.554688 225.035156 267.554688 221.601562 C 267.554688 219.882812 267.554688 218.164062 267.699219 216.445312 C 267.699219 214.726562 267.84375 213.152344 267.984375 211.578125 L 263.261719 208 C 238.636719 216.875 214.585938 229.617188 195.113281 247.082031 C 178.792969 261.6875 165.480469 280.152344 160.324219 301.628906 C 161.613281 301.628906 162.757812 301.484375 164.046875 301.484375 C 166.625 301.484375 169.203125 301.484375 171.777344 301.914062 Z M 171.777344 301.914062 " fill-opacity="1" fill-rule="evenodd"/><path fill="#ffffff" d="M 454.382812 581.65625 C 457.390625 583.230469 460.398438 584.949219 463.117188 587.097656 C 463.117188 587.097656 463.261719 587.097656 463.261719 587.242188 C 467.699219 590.246094 471.421875 593.96875 474.425781 597.976562 C 500.914062 582.230469 523.246094 560.324219 539.851562 534.269531 L 510.503906 534.269531 C 495.472656 553.882812 476.289062 570.0625 454.382812 581.65625 Z M 454.382812 581.65625 " fill-opacity="1" fill-rule="evenodd"/><path fill="#ffffff" d="M 479.867188 211.433594 C 480.011719 213.152344 480.152344 214.726562 480.152344 216.445312 C 480.296875 218.164062 480.296875 219.882812 480.296875 221.601562 C 480.296875 225.035156 480.152344 228.328125 479.867188 231.765625 L 480.011719 231.90625 C 499.910156 239.496094 519.667969 249.945312 535.558594 263.832031 C 547.585938 274.425781 558.179688 287.742188 563.046875 303.058594 C 566.625 302.199219 570.347656 301.773438 574.070312 301.484375 L 576.503906 301.34375 L 579.222656 301.34375 C 581.945312 301.34375 584.808594 301.628906 587.527344 302.058594 C 582.371094 280.441406 569.058594 261.828125 552.59375 246.941406 C 533.125 229.472656 509.074219 216.730469 484.449219 207.855469 Z M 479.867188 211.433594 " fill-opacity="1" fill-rule="evenodd"/><path fill="#ffffff" d="M 603.132812 410.71875 C 609.289062 404.851562 613.152344 396.546875 613.152344 387.382812 L 613.152344 366.480469 C 601.269531 364.046875 596.832031 359.753906 592.824219 353.453125 C 581.65625 360.46875 562.757812 364.476562 548.585938 366.625 L 548.585938 387.382812 C 548.585938 396.546875 552.453125 404.851562 558.609375 410.71875 C 558.894531 411.003906 559.179688 411.148438 559.464844 411.433594 C 565.191406 416.445312 572.636719 419.59375 580.796875 419.59375 C 588.957031 419.59375 596.546875 416.445312 602.128906 411.433594 C 602.558594 411.292969 602.84375 411.003906 603.132812 410.71875 Z M 603.132812 410.71875 " fill-opacity="1" fill-rule="evenodd"/><path fill="#ffffff" d="M 561.328125 429.042969 L 561.328125 431.046875 L 580.941406 452.667969 L 600.554688 431.046875 L 600.554688 429.042969 C 594.542969 431.90625 587.957031 433.484375 580.941406 433.484375 C 573.925781 433.484375 567.199219 431.90625 561.328125 429.042969 Z M 561.328125 429.042969 " fill-opacity="1" fill-rule="evenodd"/><path fill="#ffffff" d="M 354.457031 571.636719 L 374.070312 593.253906 L 393.683594 571.636719 L 393.683594 569.632812 C 387.671875 572.496094 381.085938 574.070312 374.070312 574.070312 C 367.054688 574.070312 360.46875 572.496094 354.457031 569.632812 Z M 354.457031 571.636719 " fill-opacity="1" fill-rule="evenodd"/><path fill="#ffffff" d="M 406.28125 507.070312 C 394.398438 504.636719 389.960938 500.339844 385.953125 494.039062 C 374.785156 501.054688 355.886719 505.0625 341.714844 507.210938 L 341.714844 527.96875 C 341.714844 537.132812 345.578125 545.4375 351.734375 551.304688 C 352.023438 551.59375 352.308594 551.878906 352.59375 552.164062 C 358.320312 557.175781 365.765625 560.324219 373.925781 560.324219 C 382.085938 560.324219 389.675781 557.320312 395.257812 552.164062 C 395.542969 551.878906 395.832031 551.59375 396.117188 551.304688 C 402.273438 545.4375 406.136719 537.132812 406.136719 527.96875 L 406.136719 507.070312 Z M 406.28125 507.070312 " fill-opacity="1" fill-rule="evenodd"/><path fill="#ffffff" d="M 416.445312 495.1875 L 416.589844 495.328125 L 416.730469 495.472656 L 416.875 495.617188 L 417.019531 495.757812 L 417.449219 495.757812 L 417.589844 495.902344 L 419.882812 495.902344 C 419.882812 490.03125 419.453125 483.734375 416.589844 480.871094 C 416.015625 480.296875 414.585938 478.867188 409.859375 478.867188 C 405.996094 478.867188 402.988281 475.859375 402.988281 471.992188 L 402.988281 470.277344 C 402.988281 464.40625 389.53125 455.671875 370.917969 455.671875 C 359.464844 455.671875 349.015625 459.253906 341.714844 465.550781 C 333.839844 472.421875 329.402344 482.585938 328.398438 495.757812 L 330.691406 495.757812 C 330.835938 495.617188 331.121094 495.472656 331.261719 495.328125 L 331.835938 495.328125 C 332.550781 495.042969 333.269531 494.757812 334.125 494.613281 C 361.328125 491.175781 378.792969 484.59375 381.945312 480.011719 C 383.230469 478.148438 385.378906 477.003906 387.671875 477.003906 C 389.960938 477.003906 392.109375 478.148438 393.398438 480.011719 C 394.683594 481.871094 395.6875 483.589844 396.546875 485.023438 C 399.839844 490.605469 401.269531 492.894531 414.011719 494.613281 C 414.871094 494.46875 415.730469 494.757812 416.445312 495.1875 Z M 416.445312 495.1875 " fill-opacity="1" fill-rule="evenodd"/><path fill="#ffffff" d="M 147.585938 431.046875 L 167.199219 452.667969 L 186.8125 431.046875 L 186.8125 429.042969 C 180.796875 431.90625 174.210938 433.484375 167.199219 433.484375 C 160.183594 433.484375 153.597656 431.90625 147.585938 429.042969 Z M 147.585938 431.046875 " fill-opacity="1" fill-rule="evenodd"/><path fill="#ffffff" d="M 189.386719 410.71875 C 195.542969 404.851562 199.410156 396.546875 199.410156 387.382812 L 199.410156 366.480469 C 187.527344 364.046875 183.089844 359.753906 179.082031 353.453125 C 167.914062 360.46875 149.015625 364.476562 134.84375 366.625 L 134.84375 387.382812 C 134.84375 396.546875 138.707031 404.851562 144.863281 410.71875 C 145.148438 411.003906 145.4375 411.148438 145.722656 411.433594 C 151.449219 416.445312 158.894531 419.59375 167.199219 419.59375 C 175.359375 419.59375 182.945312 416.589844 188.527344 411.433594 C 188.816406 411.292969 189.101562 411.003906 189.386719 410.71875 Z M 189.386719 410.71875 " fill-opacity="1" fill-rule="evenodd"/><path fill="#ffffff" d="M 578.078125 315.515625 C 577.648438 315.660156 577.21875 315.660156 576.789062 315.660156 C 576.074219 315.660156 575.359375 315.515625 574.785156 315.371094 C 564.476562 315.945312 555.316406 319.378906 548.585938 325.25 C 540.710938 332.121094 536.273438 342.285156 535.273438 355.457031 L 537.5625 355.457031 C 537.847656 355.171875 538.277344 355.027344 538.707031 354.742188 C 538.851562 354.597656 538.996094 354.597656 539.136719 354.597656 L 539.421875 354.457031 C 539.851562 354.3125 540.28125 354.167969 540.855469 354.167969 C 568.054688 350.734375 585.523438 344.148438 588.816406 339.566406 C 590.105469 337.707031 592.25 336.558594 594.542969 336.558594 C 596.832031 336.558594 598.980469 337.707031 600.269531 339.566406 C 601.558594 341.429688 602.558594 343.144531 603.417969 344.578125 C 606.710938 350.160156 608.140625 352.59375 620.882812 354.167969 C 621.3125 354.167969 621.742188 354.3125 622.171875 354.457031 L 622.746094 354.457031 C 623.316406 354.742188 623.890625 355.027344 624.464844 355.457031 L 626.753906 355.457031 C 626.753906 349.589844 626.324219 343.289062 623.460938 340.425781 C 623.03125 339.851562 621.457031 338.421875 616.730469 338.421875 C 612.867188 338.421875 609.859375 335.414062 609.859375 331.550781 L 609.859375 329.832031 C 609.859375 324.105469 597.117188 315.660156 579.222656 315.230469 C 578.792969 315.371094 578.507812 315.371094 578.078125 315.515625 Z M 578.078125 315.515625 " fill-opacity="1" fill-rule="evenodd"/><path fill="#ffffff" d="M 675 481.730469 C 675 459.109375 650.804688 450.949219 640.355469 448.515625 L 609.71875 441.355469 L 586.09375 467.554688 L 585.953125 467.699219 L 585.808594 467.839844 C 584.804688 468.558594 583.660156 468.84375 582.515625 468.988281 L 581.085938 468.988281 C 580.941406 468.988281 580.796875 468.988281 580.65625 468.84375 L 580.367188 468.84375 C 579.507812 468.414062 578.652344 467.839844 577.933594 467.125 L 554.167969 440.925781 L 523.53125 448.085938 C 513.082031 450.519531 488.886719 458.535156 488.886719 481.300781 L 488.886719 520.238281 L 675 520.238281 Z M 675 481.730469 " fill-opacity="1" fill-rule="evenodd"/><g clip-path="url(#6a2d57924c)"><path fill="#ffffff" d="M 455.53125 598.695312 C 455.242188 598.550781 454.957031 598.265625 454.671875 598.121094 C 447.371094 592.96875 438.636719 590.246094 433.484375 589.101562 L 402.84375 581.945312 L 379.222656 608.140625 C 379.082031 608.285156 378.9375 608.429688 378.9375 608.429688 L 378.792969 608.570312 L 378.652344 608.714844 L 378.363281 608.859375 L 378.222656 609 L 378.078125 609 C 377.648438 609.144531 377.363281 609.289062 376.933594 609.429688 C 376.644531 609.429688 376.503906 609.574219 376.21875 609.574219 L 374.355469 609.574219 C 374.070312 609.574219 373.78125 609.429688 373.640625 609.429688 L 373.351562 609.289062 L 373.210938 609.289062 L 373.066406 609.144531 C 372.78125 609 372.351562 608.714844 372.066406 608.429688 C 371.921875 608.285156 371.777344 608.140625 371.777344 608.140625 L 348.15625 581.945312 L 317.519531 589.101562 C 312.367188 590.246094 303.632812 592.96875 296.332031 598.121094 C 296.046875 598.40625 295.757812 598.550781 295.472656 598.695312 C 288.457031 603.847656 283.015625 611.433594 283.015625 622.316406 L 283.015625 661.113281 L 471.277344 661.113281 L 471.277344 622.316406 C 468.128906 611.292969 462.542969 603.847656 455.53125 598.695312 Z M 455.53125 598.695312 " fill-opacity="1" fill-rule="evenodd"/></g><path fill="#ffffff" d="M 218.164062 520.667969 L 261.257812 520.667969 L 261.257812 481.730469 C 261.257812 459.109375 237.0625 450.949219 226.609375 448.515625 L 195.972656 441.355469 L 172.207031 467.554688 L 172.066406 467.699219 L 171.921875 467.839844 L 171.777344 467.984375 L 171.492188 467.984375 C 170.632812 468.414062 169.632812 468.699219 168.773438 468.84375 L 167.484375 468.84375 C 167.199219 468.84375 166.910156 468.699219 166.769531 468.699219 L 166.480469 468.699219 C 165.621094 468.269531 164.765625 467.699219 164.046875 466.984375 L 140.28125 440.785156 L 109.644531 447.941406 C 99.195312 450.375 75 458.394531 75 481.15625 L 75 520.097656 L 218.164062 520.097656 C 218.019531 520.667969 218.164062 520.667969 218.164062 520.667969 Z M 218.164062 520.667969 " fill-opacity="1" fill-rule="evenodd"/><path fill="#ffffff" d="M 125.394531 354.3125 L 125.679688 354.167969 L 125.824219 354.167969 L 126.109375 354.027344 C 126.394531 353.882812 126.824219 353.882812 127.113281 353.882812 C 154.3125 350.449219 171.777344 343.863281 175.070312 339.28125 C 176.359375 337.417969 178.507812 336.273438 180.796875 336.273438 C 183.089844 336.273438 185.234375 337.417969 186.523438 339.28125 C 187.8125 341.140625 188.816406 342.859375 189.675781 344.292969 C 192.96875 349.875 194.398438 352.308594 207.140625 353.882812 C 207.570312 353.882812 208 354.027344 208.429688 354.167969 L 208.859375 354.167969 C 209.574219 354.457031 210.148438 354.742188 210.71875 355.171875 L 213.011719 355.171875 C 213.011719 349.300781 212.582031 343.003906 209.71875 340.140625 C 209.289062 339.566406 207.714844 338.136719 202.988281 338.136719 C 199.125 338.136719 196.117188 335.128906 196.117188 331.261719 L 196.117188 329.546875 C 196.117188 324.390625 185.808594 317.089844 170.777344 315.371094 C 170.492188 315.371094 170.203125 315.371094 170.0625 315.230469 C 168.199219 315.085938 166.195312 314.941406 164.046875 314.941406 C 152.59375 314.941406 142.144531 318.523438 134.84375 324.820312 C 126.96875 331.691406 122.53125 341.859375 121.527344 355.027344 L 123.820312 355.027344 C 124.25 354.886719 124.820312 354.597656 125.394531 354.3125 Z M 125.394531 354.3125 " fill-opacity="1" fill-rule="evenodd"/><g clip-path="url(#a9f2854abe)"><path fill="#ffffff" d="M 249.660156 180.796875 L 279.4375 202.84375 C 281.441406 204.277344 282.445312 206.855469 282.15625 209.289062 C 281.871094 211.863281 281.585938 214.441406 281.441406 217.019531 C 281.441406 217.160156 281.441406 217.160156 281.441406 217.304688 C 281.441406 218.738281 281.300781 220.3125 281.300781 221.742188 C 281.300781 225.894531 281.585938 230.046875 282.15625 234.199219 C 282.445312 236.632812 281.441406 239.210938 279.4375 240.640625 L 249.660156 262.6875 C 247.511719 264.261719 246.941406 267.125 248.226562 269.417969 L 269.988281 307.070312 C 271.277344 309.359375 273.996094 310.21875 276.429688 309.214844 L 310.363281 294.328125 C 311.21875 293.898438 312.222656 293.753906 313.082031 293.753906 C 314.511719 293.753906 316.089844 294.183594 317.234375 295.1875 C 323.820312 300.339844 330.976562 304.492188 338.707031 307.640625 C 341 308.644531 342.574219 310.789062 342.859375 313.226562 L 347.011719 350.019531 C 347.296875 352.59375 349.445312 354.597656 352.023438 354.597656 L 395.542969 354.597656 C 398.121094 354.597656 400.269531 352.738281 400.554688 350.019531 L 404.707031 313.226562 C 404.992188 310.789062 406.566406 308.644531 408.859375 307.640625 C 416.445312 304.492188 423.746094 300.339844 430.332031 295.1875 C 432.335938 293.609375 434.914062 293.324219 437.347656 294.328125 L 471.277344 309.214844 C 473.710938 310.21875 476.429688 309.359375 477.71875 307.070312 L 499.480469 269.417969 C 500.769531 267.125 500.195312 264.261719 498.050781 262.6875 L 468.269531 240.640625 C 466.265625 239.210938 465.265625 236.632812 465.550781 234.199219 C 466.125 230.046875 466.410156 225.894531 466.410156 221.742188 C 466.410156 220.3125 466.410156 218.738281 466.265625 217.304688 C 466.265625 217.304688 466.265625 217.160156 466.265625 217.160156 C 466.125 214.585938 465.835938 212.007812 465.550781 209.429688 C 465.265625 206.996094 466.265625 204.421875 468.269531 202.988281 L 498.050781 180.941406 C 500.195312 179.367188 500.769531 176.503906 499.480469 174.210938 L 477.71875 136.558594 C 476.429688 134.269531 473.710938 133.410156 471.277344 134.414062 L 437.632812 149.160156 C 435.34375 150.160156 432.625 149.875 430.621094 148.300781 C 424.035156 143.144531 416.875 138.996094 409.144531 135.84375 C 406.855469 134.84375 405.136719 132.695312 404.992188 130.261719 L 400.839844 93.46875 C 400.554688 90.890625 398.40625 88.886719 395.832031 88.886719 L 352.308594 88.886719 C 349.730469 88.886719 347.585938 90.746094 347.296875 93.46875 L 343.144531 130.261719 C 342.859375 132.695312 341.285156 134.84375 338.996094 135.84375 C 331.40625 138.996094 324.105469 143.144531 317.519531 148.300781 C 315.515625 149.875 312.9375 150.160156 310.503906 149.160156 L 276.574219 134.269531 C 274.140625 133.269531 271.421875 134.125 270.132812 136.417969 L 248.371094 174.070312 C 246.941406 176.359375 247.511719 179.222656 249.660156 180.796875 Z M 374.070312 168.199219 C 403.5625 168.199219 427.46875 192.109375 427.46875 221.601562 C 427.46875 251.089844 403.5625 275 374.070312 275 C 344.578125 275 320.667969 251.089844 320.667969 221.601562 C 320.527344 192.109375 344.578125 168.199219 374.070312 168.199219 Z M 374.070312 168.199219 " fill-opacity="1" fill-rule="evenodd"/></g></svg>