<svg xmlns="http://www.w3.org/2000/svg" xmlns:xlink="http://www.w3.org/1999/xlink" width="1000" zoomAndPan="magnify" viewBox="0 0 750 749.999995" height="1000" preserveAspectRatio="xMidYMid meet" version="1.0"><defs><clipPath id="45c44144c3"><path d="M 70.78125 60.796875 L 675 60.796875 L 675 675 L 70.78125 675 Z M 70.78125 60.796875 " clip-rule="nonzero"/></clipPath></defs><g clip-path="url(#45c44144c3)"><path fill="#ffffff" d="M 407.109375 597.636719 C 395.933594 599.339844 384.496094 600.222656 372.859375 600.222656 C 247.699219 600.222656 145.664062 498.183594 145.664062 373.085938 C 145.664062 247.929688 247.699219 145.894531 372.859375 145.894531 C 497.953125 145.894531 599.992188 247.929688 599.992188 373.085938 C 599.992188 384.507812 599.140625 395.730469 597.5 406.707031 C 585.398438 400.558594 572.304688 396.101562 558.53125 393.640625 C 559.269531 386.890625 559.648438 380.035156 559.648438 373.085938 C 559.648438 269.894531 475.984375 186.234375 372.859375 186.234375 C 269.664062 186.234375 186.003906 269.894531 186.003906 373.085938 C 186.003906 476.214844 269.664062 559.878906 372.859375 559.878906 C 379.984375 559.878906 387.015625 559.480469 393.933594 558.703125 C 396.433594 572.464844 400.929688 585.546875 407.109375 597.636719 Z M 391.769531 539.007812 C 385.5625 539.707031 379.253906 540.066406 372.859375 540.066406 C 280.609375 540.066406 205.816406 465.277344 205.816406 373.085938 C 205.816406 280.835938 280.605469 206.046875 372.859375 206.046875 C 465.050781 206.046875 539.835938 280.835938 539.835938 373.085938 C 539.835938 379.320312 539.496094 385.476562 538.828125 391.53125 C 537.085938 391.46875 535.335938 391.433594 533.578125 391.433594 C 455.421875 391.433594 391.660156 455.199219 391.660156 533.355469 C 391.660156 535.246094 391.695312 537.132812 391.769531 539.007812 Z M 266.21875 280.457031 L 277.007812 291.25 C 280.875 295.113281 287.152344 295.113281 291.019531 291.25 C 294.886719 287.382812 294.886719 281.105469 291.019531 277.238281 L 280.230469 266.449219 C 276.363281 262.585938 270.085938 262.585938 266.21875 266.449219 C 262.355469 270.316406 262.355469 276.59375 266.21875 280.457031 Z M 280.230469 479.664062 L 291.019531 468.875 C 294.886719 465.007812 294.886719 458.730469 291.019531 454.863281 C 287.152344 451 280.875 451 277.007812 454.863281 L 266.21875 465.652344 C 262.355469 469.519531 262.355469 475.796875 266.21875 479.664062 C 270.085938 483.53125 276.363281 483.53125 280.230469 479.664062 Z M 513.675781 363.179688 L 498.445312 363.179688 C 492.980469 363.179688 488.539062 367.621094 488.539062 373.085938 C 488.539062 378.554688 492.980469 382.992188 498.445312 382.992188 L 513.675781 382.992188 C 519.144531 382.992188 523.582031 378.554688 523.582031 373.085938 C 523.582031 367.621094 519.144531 363.179688 513.675781 363.179688 Z M 362.953125 232.207031 L 362.953125 247.496094 C 362.953125 252.964844 367.390625 257.40625 372.859375 257.40625 C 378.324219 257.40625 382.765625 252.964844 382.765625 247.496094 L 382.765625 232.207031 C 382.765625 226.742188 378.324219 222.300781 372.859375 222.300781 C 367.390625 222.300781 362.953125 226.742188 362.953125 232.207031 Z M 465.421875 266.449219 L 454.632812 277.238281 C 450.769531 281.105469 450.769531 287.382812 454.632812 291.25 C 458.5 295.113281 464.777344 295.113281 468.644531 291.25 L 479.433594 280.457031 C 483.300781 276.59375 483.300781 270.316406 479.433594 266.449219 C 475.566406 262.585938 469.289062 262.585938 465.421875 266.449219 Z M 362.953125 306.132812 L 362.953125 373.085938 C 362.953125 376.625 364.839844 379.898438 367.90625 381.667969 L 412.542969 407.4375 C 417.277344 410.171875 423.339844 408.546875 426.074219 403.8125 C 428.808594 399.078125 427.183594 393.011719 422.449219 390.28125 L 382.765625 367.367188 L 382.765625 306.132812 C 382.765625 300.664062 378.324219 296.226562 372.859375 296.226562 C 367.390625 296.226562 362.953125 300.664062 362.953125 306.132812 Z M 382.765625 513.90625 L 382.765625 498.675781 C 382.765625 493.210938 378.324219 488.769531 372.859375 488.769531 C 367.390625 488.769531 362.953125 493.210938 362.953125 498.675781 L 362.953125 513.90625 C 362.953125 519.371094 367.390625 523.8125 372.859375 523.8125 C 378.324219 523.8125 382.765625 519.371094 382.765625 513.90625 Z M 231.980469 382.992188 L 247.269531 382.992188 C 252.738281 382.992188 257.175781 378.554688 257.175781 373.085938 C 257.175781 367.621094 252.738281 363.179688 247.269531 363.179688 L 231.980469 363.179688 C 226.511719 363.179688 222.074219 367.621094 222.074219 373.085938 C 222.074219 378.554688 226.511719 382.992188 231.980469 382.992188 Z M 468.625 659.453125 C 438.519531 669.53125 406.304688 674.992188 372.828125 674.992188 C 235.464844 674.992188 119.40625 583.0625 82.859375 457.425781 C 81.332031 452.175781 84.355469 446.675781 89.605469 445.148438 C 94.855469 443.621094 100.359375 446.644531 101.882812 451.890625 C 136.03125 569.285156 244.476562 655.179688 372.828125 655.179688 C 398.371094 655.179688 423.128906 651.777344 446.671875 645.398438 C 453.519531 650.722656 460.863281 655.433594 468.625 659.453125 Z M 645.375 446.132812 C 651.617188 422.824219 654.949219 398.324219 654.949219 373.058594 C 654.949219 217.347656 528.535156 90.933594 372.828125 90.933594 C 342.730469 90.933594 313.726562 95.65625 286.519531 104.402344 L 297.265625 111.921875 C 301.742188 115.054688 302.835938 121.238281 299.699219 125.71875 C 296.566406 130.195312 290.382812 131.289062 285.902344 128.152344 L 259.484375 109.664062 C 255.96875 107.203125 254.433594 102.757812 255.6875 98.652344 L 265.109375 67.8125 C 266.707031 62.582031 272.25 59.632812 277.476562 61.230469 C 282.707031 62.828125 285.65625 68.371094 284.058594 73.601562 L 280.40625 85.554688 C 309.539062 76.183594 340.597656 71.121094 372.828125 71.121094 C 539.46875 71.121094 674.761719 206.414062 674.761719 373.058594 C 674.761719 406.238281 669.398438 438.175781 659.492188 468.046875 C 655.453125 460.300781 650.71875 452.96875 645.375 446.132812 Z M 90.703125 373.058594 C 90.703125 378.523438 86.265625 382.964844 80.796875 382.964844 C 75.332031 382.964844 70.890625 378.523438 70.890625 373.058594 C 70.890625 274.980469 117.75 187.765625 190.285156 132.597656 C 194.636719 129.289062 200.855469 130.132812 204.167969 134.488281 C 207.476562 138.839844 206.632812 145.058594 202.28125 148.367188 C 134.5 199.917969 90.703125 281.414062 90.703125 373.058594 Z M 533.578125 655.425781 C 466.332031 655.425781 411.472656 600.601562 411.472656 533.355469 C 411.472656 466.109375 466.332031 411.25 533.578125 411.25 C 600.824219 411.25 655.648438 466.109375 655.648438 533.355469 C 655.648438 600.601562 600.824219 655.425781 533.578125 655.425781 Z M 517.550781 544.101562 L 490.265625 516.816406 C 483.199219 509.75 471.722656 509.75 464.65625 516.816406 C 457.589844 523.921875 457.589844 535.359375 464.65625 542.425781 L 504.761719 582.570312 C 511.828125 589.636719 523.304688 589.636719 530.371094 582.570312 C 554.5625 558.382812 578.457031 533.9375 602.535156 509.640625 C 609.566406 502.539062 609.53125 491.097656 602.464844 484.066406 C 595.398438 477.039062 583.921875 477.074219 576.890625 484.140625 Z M 517.550781 544.101562 " fill-opacity="1" fill-rule="evenodd"/></g></svg>